<svg xmlns="http://www.w3.org/2000/svg" style="overflow: hidden; position: relative;" viewBox="0 0 562.02 520.763" preserveAspectRatio="xMidYMid meet" width="562.02" height="520.763" version="1.1"><desc style="-webkit-tap-highlight-color: rgba(0, 0, 0, 0);">Created with Raphaël 2.1.2</desc><defs style="-webkit-tap-highlight-color: rgba(0, 0, 0, 0);"><path id="raphael-marker-block-obj31" style="-webkit-tap-highlight-color: rgba(0, 0, 0, 0);" stroke-linecap="round" d="M 5 0 L 0 2.5 L 5 5 Z"/><marker id="raphael-marker-endblock33-obj32" style="-webkit-tap-highlight-color: rgba(0, 0, 0, 0);" refX="1.5" refY="1.5" markerWidth="3" markerHeight="3" orient="auto"><use style="-webkit-tap-highlight-color: rgba(0, 0, 0, 0);" fill="black" stroke="none" stroke-width="1.6667" transform="rotate(180 1.5 1.5) scale(0.6)" xmlns:xlink="http://www.w3.org/1999/xlink" xlink:href="#raphael-marker-block-obj31"/></marker></defs><rect class="flowchart" id="st" style="-webkit-tap-highlight-color: rgba(0, 0, 0, 0);" fill="#ffffff" stroke="#000000" stroke-width="2" transform="matrix(1, 0, 0, 1, 85.66, 44.7525)" x="0" y="0" width="74.19" height="37.25" rx="20" ry="20" r="20"/><text class="flowchartt" id="stt" font-size="15px" style="font: 15px &quot;Arial&quot;; font-size-adjust: none; font-stretch: normal; text-anchor: start; -webkit-tap-highlight-color: rgba(0, 0, 0, 0);" fill="#000000" stroke="none" stroke-width="1" text-anchor="start" transform="matrix(1, 0, 0, 1, 85.66, 44.7525)" x="10" y="18.625" font="10px &quot;Arial&quot;"><tspan style="-webkit-tap-highlight-color: rgba(0, 0, 0, 0);" dy="5.2">ionocorr</tspan></text><path class="flowchart" id="c1_" style="-webkit-tap-highlight-color: rgba(0, 0, 0, 0);" fill="#ffffff" stroke="#000000" stroke-width="2" transform="matrix(1, 0, 0, 1, 4, 136.003)" d="M 59.3775 29.6887 L 0 59.3775 L 118.755 118.755 L 237.51 59.3775 L 118.755 0 L 0 59.3775"/><text class="flowchartt" id="c1_t" font-size="15px" style="font: 15px &quot;Arial&quot;; font-size-adjust: none; font-stretch: normal; text-anchor: start; -webkit-tap-highlight-color: rgba(0, 0, 0, 0);" fill="#000000" stroke="none" stroke-width="1" text-anchor="start" transform="matrix(1, 0, 0, 1, 4, 136.003)" x="64.3775" y="59.3775" font="10px &quot;Arial&quot;"><tspan style="-webkit-tap-highlight-color: rgba(0, 0, 0, 0);" dy="5.2025">IONOOPT_BRDC?</tspan></text><rect class="flowchart" id="ionmodel_" style="-webkit-tap-highlight-color: rgba(0, 0, 0, 0);" fill="#ffffff" stroke="#000000" stroke-width="2" transform="matrix(1, 0, 0, 1, 82.325, 349.51)" x="0" y="0" width="80.86" height="37.25" rx="0" ry="0" r="0"/><text class="flowchartt" id="ionmodel_t" font-size="15px" style="font: 15px &quot;Arial&quot;; font-size-adjust: none; font-stretch: normal; text-anchor: start; -webkit-tap-highlight-color: rgba(0, 0, 0, 0);" fill="#000000" stroke="none" stroke-width="1" text-anchor="start" transform="matrix(1, 0, 0, 1, 82.325, 349.51)" x="10" y="18.625" font="10px &quot;Arial&quot;"><tspan style="-webkit-tap-highlight-color: rgba(0, 0, 0, 0);" dy="5.2">ionmodel</tspan></text><rect class="flowchart" id="e" style="-webkit-tap-highlight-color: rgba(0, 0, 0, 0);" fill="#ffffff" stroke="#000000" stroke-width="2" transform="matrix(1, 0, 0, 1, 100.245, 481.513)" x="0" y="0" width="45.02" height="37.25" rx="20" ry="20" r="20"/><text class="flowchartt" id="et" font-size="15px" style="font: 15px &quot;Arial&quot;; font-size-adjust: none; font-stretch: normal; text-anchor: start; -webkit-tap-highlight-color: rgba(0, 0, 0, 0);" fill="#000000" stroke="none" stroke-width="1" text-anchor="start" transform="matrix(1, 0, 0, 1, 100.245, 481.513)" x="10" y="18.625" font="10px &quot;Arial&quot;"><tspan style="-webkit-tap-highlight-color: rgba(0, 0, 0, 0);" dy="5.2">end</tspan><tspan style="-webkit-tap-highlight-color: rgba(0, 0, 0, 0);" x="10" dy="18"/></text><path class="flowchart" id="c2_" style="-webkit-tap-highlight-color: rgba(0, 0, 0, 0);" fill="#ffffff" stroke="#000000" stroke-width="2" transform="matrix(1, 0, 0, 1, 304.885, 140.69)" d="M 54.69 27.345 L 0 54.69 L 109.38 109.38 L 218.76 54.69 L 109.38 0 L 0 54.69"/><text class="flowchartt" id="c2_t" font-size="15px" style="font: 15px &quot;Arial&quot;; font-size-adjust: none; font-stretch: normal; text-anchor: start; -webkit-tap-highlight-color: rgba(0, 0, 0, 0);" fill="#000000" stroke="none" stroke-width="1" text-anchor="start" transform="matrix(1, 0, 0, 1, 304.885, 140.69)" x="59.69" y="54.69" font="10px &quot;Arial&quot;"><tspan style="-webkit-tap-highlight-color: rgba(0, 0, 0, 0);" dy="5.205">IONOOPT_TEC?</tspan></text><rect class="flowchart" id="iontec_" style="-webkit-tap-highlight-color: rgba(0, 0, 0, 0);" fill="#ffffff" stroke="#000000" stroke-width="2" transform="matrix(1, 0, 0, 1, 384.255, 344.823)" x="0" y="0" width="60.02" height="37.25" rx="0" ry="0" r="0"/><text class="flowchartt" id="iontec_t" font-size="15px" style="font: 15px &quot;Arial&quot;; font-size-adjust: none; font-stretch: normal; text-anchor: start; -webkit-tap-highlight-color: rgba(0, 0, 0, 0);" fill="#000000" stroke="none" stroke-width="1" text-anchor="start" transform="matrix(1, 0, 0, 1, 384.255, 344.823)" x="10" y="18.625" font="10px &quot;Arial&quot;"><tspan style="-webkit-tap-highlight-color: rgba(0, 0, 0, 0);" dy="5.2">iontec</tspan></text><path style="-webkit-tap-highlight-color: rgba(0, 0, 0, 0);" fill="none" marker-end="url(&quot;#raphael-marker-endblock33-obj32&quot;)" stroke="#000000" stroke-width="2" d="M 122.755 82.0025 C 122.755 82.0025 122.755 121.657 122.755 133.003"/><path style="-webkit-tap-highlight-color: rgba(0, 0, 0, 0);" fill="none" marker-end="url(&quot;#raphael-marker-endblock33-obj32&quot;)" stroke="#000000" stroke-width="2" d="M 122.755 254.757 C 122.755 254.757 122.755 330.412 122.755 346.518"/><text font-size="15px" style="font: 15px &quot;Arial&quot;; font-size-adjust: none; font-stretch: normal; text-anchor: start; -webkit-tap-highlight-color: rgba(0, 0, 0, 0);" fill="#000000" stroke="none" stroke-width="1" text-anchor="start" x="127.755" y="264.7575" font="10px &quot;Arial&quot;"><tspan style="-webkit-tap-highlight-color: rgba(0, 0, 0, 0);" dy="5.2025">yes</tspan></text><path style="-webkit-tap-highlight-color: rgba(0, 0, 0, 0);" fill="none" marker-end="url(&quot;#raphael-marker-endblock33-obj32&quot;)" stroke="#000000" stroke-width="2" d="M 241.51 195.38 C 241.51 195.38 289.33 195.38 301.892 195.38"/><text font-size="15px" style="font: 15px &quot;Arial&quot;; font-size-adjust: none; font-stretch: normal; text-anchor: start; -webkit-tap-highlight-color: rgba(0, 0, 0, 0);" fill="#000000" stroke="none" stroke-width="1" text-anchor="start" x="246.51" y="185.38" font="10px &quot;Arial&quot;"><tspan style="-webkit-tap-highlight-color: rgba(0, 0, 0, 0);" dy="5.205">no</tspan></text><path style="-webkit-tap-highlight-color: rgba(0, 0, 0, 0);" fill="none" marker-end="url(&quot;#raphael-marker-endblock33-obj32&quot;)" stroke="#000000" stroke-width="2" d="M 122.755 386.76 C 122.755 386.76 122.755 462.414 122.755 478.52"/><path style="-webkit-tap-highlight-color: rgba(0, 0, 0, 0);" fill="none" marker-end="url(&quot;#raphael-marker-endblock33-obj32&quot;)" stroke="#000000" stroke-width="2" d="M 414.265 250.07 C 414.265 250.07 414.265 325.724 414.265 341.83"/><text font-size="15px" style="font: 15px &quot;Arial&quot;; font-size-adjust: none; font-stretch: normal; text-anchor: start; -webkit-tap-highlight-color: rgba(0, 0, 0, 0);" fill="#000000" stroke="none" stroke-width="1" text-anchor="start" x="419.265" y="260.07" font="10px &quot;Arial&quot;"><tspan style="-webkit-tap-highlight-color: rgba(0, 0, 0, 0);" dy="5.205">yes</tspan></text><path style="-webkit-tap-highlight-color: rgba(0, 0, 0, 0);" fill="none" marker-end="url(&quot;#raphael-marker-endblock33-obj32&quot;)" stroke="#000000" stroke-width="2" d="M 414.265 382.073 C 414.265 382.073 414.265 456.512 414.265 456.512 C 414.265 456.512 122.755 456.512 122.755 456.512 C 122.755 456.512 122.755 471.886 122.755 478.522"/></svg>